<?xml version="1.0" standalone="no"?>
<!DOCTYPE svg PUBLIC "-//W3C//DTD SVG 20010904//EN"
 "http://www.w3.org/TR/2001/REC-SVG-20010904/DTD/svg10.dtd">
<svg version="1.0" xmlns="http://www.w3.org/2000/svg"
 width="269.000000pt" height="320.000000pt" viewBox="0 0 269.000000 320.000000"
 preserveAspectRatio="xMidYMid meet">

<g transform="translate(0.000000,320.000000) scale(0.100000,-0.100000)"
fill="#000000" stroke="none">
<path d="M1168 3184 c-247 -38 -488 -167 -658 -352 l-71 -77 442 -3 c243 -1
444 0 447 3 3 2 8 33 11 67 l7 63 6 -63 c3 -35 8 -66 11 -68 2 -2 203 -3 447
-2 l443 3 -74 79 c-259 278 -637 409 -1011 350z"/>
<path d="M352 2616 c-50 -88 -112 -250 -112 -293 0 -11 98 -13 529 -13 l529 0
5 43 c4 23 9 92 12 152 3 61 9 122 11 138 l6 27 -475 0 -475 0 -30 -54z"/>
<path d="M1372 2563 c4 -60 10 -141 13 -180 l7 -73 533 0 534 0 -16 53 c-27
91 -63 179 -99 244 l-35 63 -472 0 -472 0 7 -107z"/>
<path d="M216 2199 c-8 -41 -8 -223 0 -283 l7 -46 522 0 522 0 6 53 c3 28 9
109 13 180 l7 127 -535 0 -535 0 -7 -31z"/>
<path d="M1404 2123 c3 -60 9 -141 13 -180 l6 -73 522 0 522 0 7 38 c8 48 8
270 0 300 l-6 22 -536 0 -535 0 7 -107z"/>
<path d="M246 1763 c13 -55 54 -155 100 -243 l46 -90 423 0 422 0 6 78 c4 42
9 123 13 180 l7 102 -512 0 -511 0 6 -27z"/>
<path d="M1433 1703 c4 -49 10 -130 13 -180 l7 -93 421 0 422 0 36 63 c41 71
79 158 102 236 9 30 16 56 16 58 0 2 -230 3 -511 3 l-512 0 6 -87z"/>
<path d="M479 1321 c32 -45 148 -148 226 -201 82 -56 155 -93 245 -127 70 -27
239 -67 247 -59 5 5 32 330 33 389 l0 27 -386 0 -385 0 20 -29z"/>
<path d="M1460 1328 c1 -53 29 -390 33 -394 8 -8 180 33 252 61 90 34 205 96
275 148 66 49 165 142 192 180 l19 27 -385 0 -386 0 0 -22z"/>
<path d="M375 979 c-9 -17 -14 -33 -11 -36 3 -4 54 -10 113 -14 237 -18 401
-54 538 -118 124 -58 145 -75 145 -117 0 -49 -20 -52 -87 -11 -144 87 -307
133 -602 172 -157 21 -152 21 -179 -25 -12 -22 -20 -40 -17 -40 27 0 407 -53
468 -66 105 -21 207 -57 286 -100 89 -48 99 -59 107 -111 10 -69 -2 -72 -103
-26 -191 88 -446 145 -798 177 l-60 6 -84 -136 c-45 -74 -81 -137 -79 -139 2
-2 46 -9 98 -15 470 -55 1056 -227 1207 -354 27 -23 32 -24 43 -11 18 22 122
79 209 115 190 78 504 167 746 210 99 18 330 50 362 50 6 0 -27 63 -75 140
l-87 139 -55 -5 c-393 -40 -609 -87 -803 -177 -101 -47 -112 -44 -102 28 7 44
12 50 67 86 129 83 270 122 592 163 110 14 201 28 203 30 8 8 -33 66 -48 66
-8 0 -89 -9 -179 -20 -281 -35 -392 -64 -540 -141 -51 -27 -100 -47 -107 -45
-7 3 -13 21 -13 41 0 30 6 38 43 62 144 91 357 151 597 168 154 11 171 14 161
33 -31 56 -25 55 -166 37 -347 -42 -594 -119 -673 -210 -36 -41 -36 -39 -17
-120 21 -87 19 -210 -4 -278 -19 -53 -82 -160 -102 -173 -5 -3 -9 36 -9 89 0
77 3 96 16 101 20 8 15 55 -8 70 -39 24 -79 -44 -44 -74 12 -9 16 -33 16 -101
0 -49 -3 -89 -7 -89 -14 1 -72 85 -100 146 -35 77 -43 199 -19 307 21 92 13
114 -58 161 -117 77 -325 133 -629 171 -67 8 -125 15 -129 15 -4 0 -15 -14
-23 -31z m85 -400 c128 -21 277 -61 454 -120 214 -72 231 -80 252 -120 8 -17
35 -58 60 -91 38 -52 70 -125 60 -136 -2 -2 -31 10 -64 27 -238 120 -575 222
-921 278 -91 15 -168 28 -170 30 -2 1 18 37 45 78 l49 77 85 -7 c47 -3 114
-11 150 -16z m2054 -54 c27 -42 47 -77 45 -79 -2 -1 -80 -15 -173 -30 -350
-57 -679 -157 -918 -277 -31 -16 -59 -29 -62 -29 -14 0 18 81 49 124 20 28 50
72 67 98 29 45 35 49 153 92 283 104 563 170 745 175 l45 1 49 -75z"/>
</g>
</svg>
