<?xml version="1.0" standalone="no"?>
<!DOCTYPE svg PUBLIC "-//W3C//DTD SVG 20010904//EN"
 "http://www.w3.org/TR/2001/REC-SVG-20010904/DTD/svg10.dtd">
<svg version="1.0" xmlns="http://www.w3.org/2000/svg"
 width="324.000000pt" height="244.000000pt" viewBox="0 0 324.000000 244.000000"
 preserveAspectRatio="xMidYMid meet">

<g transform="translate(0.000000,244.000000) scale(0.100000,-0.100000)"
fill="#000000" stroke="none">
<path d="M1452 2320 c-105 -28 -221 -92 -300 -166 l-67 -63 267 -1 267 0 4 28
4 27 2 -27 1 -28 273 0 272 1 -70 65 c-83 77 -215 147 -320 169 -98 20 -244
18 -333 -5z"/>
<path d="M1014 1978 c-22 -43 -64 -151 -64 -165 0 -1 144 -3 320 -3 l319 0 5
33 c3 17 8 67 11 110 l7 77 -286 0 -286 0 -26 -52z"/>
<path d="M1640 1997 c0 -19 3 -68 6 -110 l7 -77 328 0 327 0 -10 38 c-5 20
-25 70 -44 110 l-35 72 -289 0 -290 0 0 -33z"/>
<path d="M936 1719 c-3 -17 -6 -46 -6 -64 0 -18 3 -47 6 -64 l7 -31 313 0 313
0 5 33 c3 17 7 60 10 95 l6 62 -324 0 -323 0 -7 -31z"/>
<path d="M1663 1683 c4 -38 7 -80 7 -95 l0 -28 324 0 324 0 7 49 c4 27 3 69 0
95 l-7 46 -331 0 -330 0 6 -67z"/>
<path d="M969 1437 c10 -29 30 -76 45 -105 l26 -52 254 0 254 0 6 78 c4 42 9
89 11 105 l5 27 -310 0 -309 0 18 -53z"/>
<path d="M1685 1398 c4 -51 8 -99 10 -105 3 -10 65 -13 263 -13 l258 0 22 39
c12 21 33 69 47 105 l25 66 -315 0 -316 0 6 -92z"/>
<path d="M1100 1211 c0 -24 132 -126 215 -167 80 -40 198 -75 208 -63 3 2 8
57 12 122 l7 117 -221 0 c-127 0 -221 -4 -221 -9z"/>
<path d="M1704 1173 c3 -27 8 -83 12 -125 6 -78 6 -78 33 -72 140 31 256 88
349 170 34 30 62 60 62 65 0 5 -97 9 -231 9 l-231 0 6 -47z"/>
<path d="M2130 998 c-162 -14 -310 -53 -381 -101 -48 -32 -56 -63 -35 -131 11
-36 15 -67 11 -88 -9 -41 -52 -122 -76 -144 -18 -16 -19 -15 -19 31 0 31 6 55
16 66 29 32 -9 76 -41 49 -19 -16 -19 -46 0 -54 11 -4 15 -20 15 -56 0 -27 -4
-50 -8 -50 -15 0 -81 112 -88 148 -4 21 -2 54 5 77 27 87 26 92 -15 134 -62
61 -207 104 -395 118 -72 5 -93 3 -100 -8 -16 -25 -10 -29 39 -29 60 0 230
-26 291 -44 106 -31 167 -79 141 -110 -8 -11 -23 -7 -78 19 -80 40 -164 61
-315 81 -104 14 -113 13 -124 -3 -7 -9 -13 -20 -13 -23 0 -4 43 -12 95 -19
142 -19 315 -56 367 -79 40 -17 48 -26 58 -61 6 -23 8 -46 5 -51 -3 -5 -34 5
-70 21 -79 36 -224 73 -366 93 -160 24 -147 28 -203 -70 -26 -47 -46 -86 -45
-88 2 -1 58 -10 124 -20 297 -43 541 -115 675 -202 25 -15 28 -15 70 14 111
74 389 153 685 193 50 7 91 13 93 14 6 4 -93 167 -105 172 -21 8 -242 -25
-349 -52 -54 -14 -126 -38 -162 -55 -35 -16 -67 -30 -69 -30 -12 0 6 83 22
100 28 31 200 74 407 101 96 12 96 12 85 36 -9 21 -15 23 -61 18 -191 -22
-316 -52 -394 -96 -55 -31 -72 -31 -72 1 0 27 60 69 129 91 58 18 232 46 318
51 39 3 41 4 30 23 -11 19 -18 20 -97 13z m-1061 -253 c142 -21 304 -60 368
-90 55 -25 94 -69 127 -144 25 -54 13 -68 -34 -41 -144 84 -307 135 -532 166
-67 9 -125 18 -126 20 -2 1 8 25 24 53 31 58 24 57 173 36z m1276 -26 c43 -67
44 -66 -37 -73 -201 -19 -447 -89 -563 -159 -71 -43 -85 -37 -61 26 24 63 77
121 135 146 62 26 224 65 351 85 147 22 146 22 175 -25z"/>
<path d="M220 217 c0 -88 16 -117 64 -117 59 0 71 18 71 106 0 53 -4 79 -12
81 -10 4 -13 -13 -13 -60 0 -84 -6 -97 -40 -97 -34 0 -40 13 -40 96 0 50 -3
64 -15 64 -12 0 -15 -15 -15 -73z"/>
<path d="M400 195 c0 -76 3 -95 15 -95 10 0 15 15 17 57 l3 58 35 -58 c50 -83
60 -76 60 39 0 72 -3 95 -12 92 -8 -3 -14 -28 -16 -63 l-3 -59 -39 62 c-22 34
-44 62 -50 62 -6 0 -10 -37 -10 -95z"/>
<path d="M580 196 c0 -80 3 -96 15 -96 13 0 15 15 13 92 -2 62 -7 93 -15 96
-10 3 -13 -20 -13 -92z"/>
<path d="M640 282 c0 -4 13 -46 28 -92 38 -114 52 -115 87 -8 16 46 30 89 33
96 2 6 -3 12 -11 12 -10 0 -24 -25 -40 -72 l-24 -73 -23 73 c-14 40 -30 72
-37 72 -7 0 -13 -4 -13 -8z"/>
<path d="M820 195 l0 -95 60 0 c47 0 60 3 60 15 0 11 -12 15 -45 15 -41 0 -45
2 -45 25 0 20 5 25 25 25 16 0 25 6 25 15 0 9 -9 15 -25 15 -20 0 -25 5 -25
25 0 23 4 25 46 25 69 0 52 24 -19 28 l-57 3 0 -96z"/>
<path d="M970 195 c0 -78 3 -95 15 -95 10 0 15 11 15 35 0 28 4 35 20 35 13 0
26 -12 37 -35 9 -19 23 -35 30 -35 17 0 16 4 -2 41 -15 27 -14 31 6 58 39 53
4 91 -82 91 l-39 0 0 -95z m100 50 c18 -21 -4 -45 -41 -45 -26 0 -29 4 -29 30
0 26 3 30 29 30 16 0 34 -7 41 -15z"/>
<path d="M1156 277 c-12 -9 -17 -23 -14 -42 2 -23 12 -35 43 -51 22 -11 40
-27 40 -35 0 -10 -12 -14 -40 -15 -58 -1 -62 -3 -41 -19 28 -21 79 -19 101 5
27 30 13 67 -35 86 -41 17 -52 40 -24 51 9 3 25 1 35 -5 25 -16 38 7 14 25
-24 17 -56 17 -79 0z"/>
<path d="M1300 195 c0 -57 4 -95 10 -95 6 0 10 38 10 95 0 57 -4 95 -10 95 -6
0 -10 -38 -10 -95z"/>
<path d="M1360 275 c0 -9 9 -15 25 -15 25 0 25 -1 25 -80 0 -64 3 -80 15 -80
12 0 15 16 15 80 0 79 0 80 25 80 16 0 25 6 25 15 0 12 -14 15 -65 15 -51 0
-65 -3 -65 -15z"/>
<path d="M1528 213 c-15 -43 -30 -86 -33 -95 -5 -13 -2 -18 8 -18 9 0 19 9 22
20 9 29 75 29 82 0 5 -19 33 -29 33 -12 0 27 -59 177 -71 180 -9 2 -23 -23
-41 -75z m57 -20 c5 -19 2 -23 -14 -23 -23 0 -24 3 -15 38 7 26 18 20 29 -15z"/>
<path d="M1686 271 c-29 -32 -17 -63 32 -85 51 -24 59 -56 13 -56 -17 0 -33 5
-36 10 -5 8 -12 7 -22 -1 -13 -11 -13 -14 3 -26 25 -18 79 -16 99 3 28 28 15
66 -30 90 -50 26 -53 49 -5 50 53 1 57 3 36 19 -27 21 -70 19 -90 -4z"/>
<path d="M1890 275 c0 -9 9 -15 25 -15 25 0 25 -1 25 -80 0 -64 3 -80 15 -80
12 0 15 16 15 80 0 79 0 80 25 80 16 0 25 6 25 15 0 12 -14 15 -65 15 -51 0
-65 -3 -65 -15z"/>
<path d="M2050 195 l0 -95 60 0 c47 0 60 3 60 15 0 11 -12 15 -45 15 -41 0
-45 2 -45 25 0 20 5 25 25 25 16 0 25 6 25 15 0 9 -9 15 -25 15 -20 0 -25 5
-25 25 0 23 4 25 46 25 69 0 52 24 -19 28 l-57 3 0 -96z"/>
<path d="M2200 195 c0 -78 3 -95 15 -95 10 0 15 11 15 35 0 28 4 35 20 35 13
0 26 -12 37 -35 9 -19 23 -35 30 -35 17 0 16 4 -2 41 -14 27 -14 31 5 57 17
22 19 33 11 54 -10 27 -35 38 -93 38 l-38 0 0 -95z m100 50 c18 -21 -4 -45
-41 -45 -26 0 -29 4 -29 30 0 26 3 30 29 30 16 0 34 -7 41 -15z"/>
<path d="M2370 196 l0 -96 48 0 c35 0 54 5 65 18 18 20 23 57 8 67 -5 3 -8 20
-5 38 7 46 -7 59 -65 65 l-51 5 0 -97z m85 39 c0 -14 -8 -21 -27 -23 -24 -3
-28 0 -28 23 0 23 4 26 28 23 19 -2 27 -9 27 -23z m5 -60 c19 -23 4 -45 -30
-45 -27 0 -30 3 -30 30 0 25 4 30 24 30 13 0 29 -7 36 -15z"/>
<path d="M2530 217 c0 -88 16 -117 64 -117 58 0 70 18 74 109 4 69 2 81 -12
81 -13 0 -16 -12 -16 -64 0 -83 -6 -96 -40 -96 -34 0 -40 13 -40 96 0 50 -3
64 -15 64 -12 0 -15 -15 -15 -73z"/>
<path d="M2710 196 c0 -79 3 -96 15 -96 9 0 15 9 15 24 0 30 9 56 20 56 5 0
19 -18 31 -40 13 -22 30 -40 40 -40 14 0 12 9 -14 58 l-31 59 28 36 c41 54 7
49 -36 -4 l-33 -41 -5 38 c-3 20 -11 39 -17 42 -10 3 -13 -20 -13 -92z"/>
<path d="M2921 268 c-54 -143 -60 -168 -45 -168 9 0 18 9 21 20 8 29 78 29 86
0 3 -11 12 -20 21 -20 12 0 10 16 -17 92 -33 95 -51 116 -66 76z m33 -60 c9
-35 8 -38 -14 -38 -11 0 -20 3 -20 8 0 19 13 52 20 52 4 0 10 -10 14 -22z"/>
</g>
</svg>
